<mxfile host="app.diagrams.net" modified="2024-06-06T08:51:58.927Z" agent="Mozilla/5.0 (Windows NT 10.0; Win64; x64) AppleWebKit/537.36 (KHTML, like Gecko) Chrome/125.0.0.0 Safari/537.36" etag="JMciqELKLnHWo_bgbyMy" version="24.4.14" type="github">
  <diagram name="Page-1" id="edf60f1a-56cd-e834-aa8a-f176f3a09ee4">
    <mxGraphModel dx="1105" dy="595" grid="1" gridSize="10" guides="1" tooltips="1" connect="1" arrows="1" fold="1" page="1" pageScale="1" pageWidth="850" pageHeight="1400" background="none" math="0" shadow="1">
      <root>
        <mxCell id="0" />
        <mxCell id="1" parent="0" />
        <mxCell id="mCzXiH6NWdjLSZmSII8E-2" value="" style="endArrow=classic;html=1;rounded=0;exitX=0.5;exitY=1;exitDx=0;exitDy=0;labelBackgroundColor=none;fontColor=default;" parent="1" edge="1">
          <mxGeometry width="50" height="50" relative="1" as="geometry">
            <mxPoint x="560" y="164" as="sourcePoint" />
            <mxPoint x="560" y="204" as="targetPoint" />
          </mxGeometry>
        </mxCell>
        <mxCell id="mCzXiH6NWdjLSZmSII8E-3" value="&lt;font face=&quot;Tahoma&quot;&gt;Bérbe adó&amp;nbsp;&lt;/font&gt;&lt;div&gt;&lt;font face=&quot;Tahoma&quot;&gt;select eo_cores&lt;/font&gt;&lt;/div&gt;" style="rounded=0;whiteSpace=wrap;html=1;labelBackgroundColor=none;" parent="1" vertex="1">
          <mxGeometry x="460" y="204" width="200" height="60" as="geometry" />
        </mxCell>
        <mxCell id="mCzXiH6NWdjLSZmSII8E-4" value="Bérbe vevő&lt;div&gt;select par_partners&lt;/div&gt;" style="rounded=0;whiteSpace=wrap;html=1;labelBackgroundColor=none;" parent="1" vertex="1">
          <mxGeometry x="460" y="304" width="200" height="60" as="geometry" />
        </mxCell>
        <mxCell id="mCzXiH6NWdjLSZmSII8E-5" value="" style="endArrow=classic;html=1;rounded=0;exitX=0.5;exitY=1;exitDx=0;exitDy=0;entryX=0.5;entryY=0;entryDx=0;entryDy=0;labelBackgroundColor=none;fontColor=default;" parent="1" source="mCzXiH6NWdjLSZmSII8E-3" target="mCzXiH6NWdjLSZmSII8E-4" edge="1">
          <mxGeometry width="50" height="50" relative="1" as="geometry">
            <mxPoint x="570" y="414" as="sourcePoint" />
            <mxPoint x="620" y="364" as="targetPoint" />
          </mxGeometry>
        </mxCell>
        <mxCell id="mCzXiH6NWdjLSZmSII8E-7" value="" style="endArrow=classic;html=1;rounded=0;exitX=0.5;exitY=1;exitDx=0;exitDy=0;entryX=0.5;entryY=0;entryDx=0;entryDy=0;labelBackgroundColor=none;fontColor=default;" parent="1" edge="1">
          <mxGeometry width="50" height="50" relative="1" as="geometry">
            <mxPoint x="559.5" y="364" as="sourcePoint" />
            <mxPoint x="559.5" y="394" as="targetPoint" />
            <Array as="points">
              <mxPoint x="559.5" y="384" />
            </Array>
          </mxGeometry>
        </mxCell>
        <mxCell id="mCzXiH6NWdjLSZmSII8E-8" value="SUP adatbázis&lt;div&gt;kapcsolat&amp;nbsp;&lt;/div&gt;" style="rhombus;whiteSpace=wrap;html=1;rounded=0;labelBackgroundColor=none;" parent="1" vertex="1">
          <mxGeometry x="505" y="394" width="110" height="90" as="geometry" />
        </mxCell>
        <mxCell id="mCzXiH6NWdjLSZmSII8E-13" value="" style="edgeStyle=elbowEdgeStyle;elbow=horizontal;endArrow=classic;html=1;curved=0;rounded=0;endSize=8;startSize=8;labelBackgroundColor=none;fontColor=default;exitX=1;exitY=0.5;exitDx=0;exitDy=0;" parent="1" source="mCzXiH6NWdjLSZmSII8E-8" edge="1">
          <mxGeometry width="50" height="50" relative="1" as="geometry">
            <mxPoint x="620" y="439" as="sourcePoint" />
            <mxPoint x="560" y="279" as="targetPoint" />
            <Array as="points">
              <mxPoint x="715" y="299" />
              <mxPoint x="755" y="479" />
            </Array>
          </mxGeometry>
        </mxCell>
        <mxCell id="mCzXiH6NWdjLSZmSII8E-14" value="Nem" style="edgeLabel;html=1;align=center;verticalAlign=middle;resizable=0;points=[];labelBackgroundColor=none;" parent="mCzXiH6NWdjLSZmSII8E-13" vertex="1" connectable="0">
          <mxGeometry x="-0.5" y="1" relative="1" as="geometry">
            <mxPoint x="-59" y="-5" as="offset" />
          </mxGeometry>
        </mxCell>
        <mxCell id="mCzXiH6NWdjLSZmSII8E-21" value="" style="edgeStyle=segmentEdgeStyle;endArrow=classic;html=1;curved=0;rounded=0;endSize=8;startSize=8;exitX=0;exitY=0.5;exitDx=0;exitDy=0;labelBackgroundColor=none;fontColor=default;" parent="1" source="mCzXiH6NWdjLSZmSII8E-8" edge="1">
          <mxGeometry width="50" height="50" relative="1" as="geometry">
            <mxPoint x="510" y="524" as="sourcePoint" />
            <mxPoint x="420" y="484" as="targetPoint" />
            <Array as="points">
              <mxPoint x="420" y="439" />
            </Array>
          </mxGeometry>
        </mxCell>
        <mxCell id="mCzXiH6NWdjLSZmSII8E-22" value="Igen" style="edgeLabel;html=1;align=center;verticalAlign=middle;resizable=0;points=[];labelBackgroundColor=none;" parent="mCzXiH6NWdjLSZmSII8E-21" vertex="1" connectable="0">
          <mxGeometry x="-0.12" relative="1" as="geometry">
            <mxPoint y="9" as="offset" />
          </mxGeometry>
        </mxCell>
        <mxCell id="mCzXiH6NWdjLSZmSII8E-23" value="JIRA RC" style="rounded=0;whiteSpace=wrap;html=1;labelBackgroundColor=none;" parent="1" vertex="1">
          <mxGeometry x="320" y="487" width="200" height="45" as="geometry" />
        </mxCell>
        <mxCell id="mCzXiH6NWdjLSZmSII8E-25" value="" style="endArrow=classic;html=1;rounded=0;exitX=0.5;exitY=1;exitDx=0;exitDy=0;entryX=0.5;entryY=0;entryDx=0;entryDy=0;labelBackgroundColor=none;fontColor=default;" parent="1" edge="1">
          <mxGeometry width="50" height="50" relative="1" as="geometry">
            <mxPoint x="419.5" y="532" as="sourcePoint" />
            <mxPoint x="419.5" y="562" as="targetPoint" />
            <Array as="points">
              <mxPoint x="419.5" y="552" />
            </Array>
          </mxGeometry>
        </mxCell>
        <mxCell id="mCzXiH6NWdjLSZmSII8E-26" value="311000 Vevői követelés egyenlege" style="rounded=0;whiteSpace=wrap;html=1;labelBackgroundColor=none;" parent="1" vertex="1">
          <mxGeometry x="320" y="564" width="200" height="45" as="geometry" />
        </mxCell>
        <mxCell id="mCzXiH6NWdjLSZmSII8E-27" value="479101 Bérlőtől kapott kaució&amp;nbsp;" style="rounded=0;whiteSpace=wrap;html=1;labelBackgroundColor=none;" parent="1" vertex="1">
          <mxGeometry x="320" y="644" width="200" height="45" as="geometry" />
        </mxCell>
        <mxCell id="mCzXiH6NWdjLSZmSII8E-28" value="" style="endArrow=classic;html=1;rounded=0;exitX=0.5;exitY=1;exitDx=0;exitDy=0;entryX=0.5;entryY=0;entryDx=0;entryDy=0;labelBackgroundColor=none;fontColor=default;" parent="1" edge="1">
          <mxGeometry width="50" height="50" relative="1" as="geometry">
            <mxPoint x="419.5" y="609" as="sourcePoint" />
            <mxPoint x="419.5" y="639" as="targetPoint" />
            <Array as="points">
              <mxPoint x="419.5" y="629" />
            </Array>
          </mxGeometry>
        </mxCell>
        <mxCell id="mCzXiH6NWdjLSZmSII8E-29" value="" style="endArrow=classic;html=1;rounded=0;exitX=0.5;exitY=1;exitDx=0;exitDy=0;entryX=0.5;entryY=0;entryDx=0;entryDy=0;labelBackgroundColor=none;fontColor=default;" parent="1" edge="1">
          <mxGeometry width="50" height="50" relative="1" as="geometry">
            <mxPoint x="419.5" y="689" as="sourcePoint" />
            <mxPoint x="420" y="722" as="targetPoint" />
            <Array as="points">
              <mxPoint x="419.5" y="709" />
            </Array>
          </mxGeometry>
        </mxCell>
        <mxCell id="mCzXiH6NWdjLSZmSII8E-31" value="Kamat BTK szerint" style="rhombus;whiteSpace=wrap;html=1;rounded=0;labelBackgroundColor=none;" parent="1" vertex="1">
          <mxGeometry x="330" y="723" width="180" height="90" as="geometry" />
        </mxCell>
        <mxCell id="mCzXiH6NWdjLSZmSII8E-34" value="" style="edgeStyle=elbowEdgeStyle;elbow=horizontal;endArrow=classic;html=1;curved=0;rounded=0;endSize=8;startSize=8;exitX=1;exitY=0.5;exitDx=0;exitDy=0;labelBackgroundColor=none;fontColor=default;" parent="1" source="mCzXiH6NWdjLSZmSII8E-31" edge="1">
          <mxGeometry width="50" height="50" relative="1" as="geometry">
            <mxPoint x="475" y="768" as="sourcePoint" />
            <mxPoint x="560" y="803" as="targetPoint" />
            <Array as="points">
              <mxPoint x="560" y="813" />
            </Array>
          </mxGeometry>
        </mxCell>
        <mxCell id="mCzXiH6NWdjLSZmSII8E-35" value="Nem" style="edgeLabel;html=1;align=center;verticalAlign=middle;resizable=0;points=[];labelBackgroundColor=none;" parent="mCzXiH6NWdjLSZmSII8E-34" vertex="1" connectable="0">
          <mxGeometry x="-0.5" y="1" relative="1" as="geometry">
            <mxPoint y="-13" as="offset" />
          </mxGeometry>
        </mxCell>
        <mxCell id="mCzXiH6NWdjLSZmSII8E-39" value="Kamat %" style="rounded=0;whiteSpace=wrap;html=1;labelBackgroundColor=none;" parent="1" vertex="1">
          <mxGeometry x="480" y="803" width="160" height="45" as="geometry" />
        </mxCell>
        <mxCell id="mCzXiH6NWdjLSZmSII8E-40" value="Feladat" style="rounded=0;whiteSpace=wrap;html=1;labelBackgroundColor=none;" parent="1" vertex="1">
          <mxGeometry x="320" y="873" width="200" height="45" as="geometry" />
        </mxCell>
        <mxCell id="mCzXiH6NWdjLSZmSII8E-41" value="" style="edgeStyle=elbowEdgeStyle;elbow=horizontal;endArrow=classic;html=1;curved=0;rounded=0;endSize=8;startSize=8;exitX=0.5;exitY=1;exitDx=0;exitDy=0;entryX=1;entryY=0.5;entryDx=0;entryDy=0;labelBackgroundColor=none;fontColor=default;" parent="1" source="mCzXiH6NWdjLSZmSII8E-39" target="mCzXiH6NWdjLSZmSII8E-40" edge="1">
          <mxGeometry width="50" height="50" relative="1" as="geometry">
            <mxPoint x="465" y="863" as="sourcePoint" />
            <mxPoint x="487" y="897" as="targetPoint" />
            <Array as="points">
              <mxPoint x="560" y="883" />
              <mxPoint x="550" y="908" />
            </Array>
          </mxGeometry>
        </mxCell>
        <mxCell id="mCzXiH6NWdjLSZmSII8E-45" value="" style="endArrow=classic;html=1;rounded=0;exitX=0.5;exitY=1;exitDx=0;exitDy=0;entryX=0.5;entryY=0;entryDx=0;entryDy=0;labelBackgroundColor=none;fontColor=default;" parent="1" target="mCzXiH6NWdjLSZmSII8E-40" edge="1">
          <mxGeometry width="50" height="50" relative="1" as="geometry">
            <mxPoint x="419.5" y="815" as="sourcePoint" />
            <mxPoint x="420" y="848" as="targetPoint" />
            <Array as="points" />
          </mxGeometry>
        </mxCell>
        <mxCell id="mCzXiH6NWdjLSZmSII8E-46" value="Igen" style="edgeLabel;html=1;align=center;verticalAlign=middle;resizable=0;points=[];labelBackgroundColor=none;" parent="mCzXiH6NWdjLSZmSII8E-45" vertex="1" connectable="0">
          <mxGeometry x="-0.1034" relative="1" as="geometry">
            <mxPoint x="16" as="offset" />
          </mxGeometry>
        </mxCell>
        <mxCell id="mCzXiH6NWdjLSZmSII8E-47" value="Van még feladat?" style="rhombus;whiteSpace=wrap;html=1;rounded=0;labelBackgroundColor=none;" parent="1" vertex="1">
          <mxGeometry x="330" y="953" width="180" height="90" as="geometry" />
        </mxCell>
        <mxCell id="mCzXiH6NWdjLSZmSII8E-49" value="" style="edgeStyle=elbowEdgeStyle;elbow=horizontal;endArrow=classic;html=1;curved=0;rounded=0;endSize=8;startSize=8;exitX=0;exitY=0.5;exitDx=0;exitDy=0;labelBackgroundColor=none;fontColor=default;" parent="1" source="mCzXiH6NWdjLSZmSII8E-47" edge="1">
          <mxGeometry width="50" height="50" relative="1" as="geometry">
            <mxPoint x="260" y="898" as="sourcePoint" />
            <mxPoint x="420" y="853" as="targetPoint" />
            <Array as="points">
              <mxPoint x="300" y="883" />
            </Array>
          </mxGeometry>
        </mxCell>
        <mxCell id="mCzXiH6NWdjLSZmSII8E-50" value="Igen" style="edgeLabel;html=1;align=center;verticalAlign=middle;resizable=0;points=[];labelBackgroundColor=none;" parent="mCzXiH6NWdjLSZmSII8E-49" vertex="1" connectable="0">
          <mxGeometry x="-0.0848" y="-3" relative="1" as="geometry">
            <mxPoint x="-19" as="offset" />
          </mxGeometry>
        </mxCell>
        <mxCell id="mCzXiH6NWdjLSZmSII8E-52" value="" style="endArrow=classic;html=1;rounded=0;exitX=0.5;exitY=1;exitDx=0;exitDy=0;entryX=0.5;entryY=0;entryDx=0;entryDy=0;labelBackgroundColor=none;fontColor=default;" parent="1" edge="1">
          <mxGeometry width="50" height="50" relative="1" as="geometry">
            <mxPoint x="419.5" y="918" as="sourcePoint" />
            <mxPoint x="420" y="951" as="targetPoint" />
            <Array as="points">
              <mxPoint x="419.5" y="938" />
            </Array>
          </mxGeometry>
        </mxCell>
        <mxCell id="mCzXiH6NWdjLSZmSII8E-53" value="" style="endArrow=classic;html=1;rounded=0;exitX=0.5;exitY=1;exitDx=0;exitDy=0;labelBackgroundColor=none;fontColor=default;" parent="1" edge="1">
          <mxGeometry width="50" height="50" relative="1" as="geometry">
            <mxPoint x="419.5" y="1043" as="sourcePoint" />
            <mxPoint x="420" y="1083" as="targetPoint" />
            <Array as="points" />
          </mxGeometry>
        </mxCell>
        <mxCell id="mCzXiH6NWdjLSZmSII8E-54" value="Nem" style="edgeLabel;html=1;align=center;verticalAlign=middle;resizable=0;points=[];labelBackgroundColor=none;" parent="mCzXiH6NWdjLSZmSII8E-53" vertex="1" connectable="0">
          <mxGeometry x="-0.1034" relative="1" as="geometry">
            <mxPoint x="16" as="offset" />
          </mxGeometry>
        </mxCell>
        <mxCell id="mCzXiH6NWdjLSZmSII8E-56" value="Vége" style="ellipse;whiteSpace=wrap;html=1;labelBackgroundColor=none;" parent="1" vertex="1">
          <mxGeometry x="360" y="1323" width="120" height="50" as="geometry" />
        </mxCell>
        <mxCell id="mCzXiH6NWdjLSZmSII8E-58" value="Pénzügyes-Könyvelő" style="rounded=0;whiteSpace=wrap;html=1;labelBackgroundColor=none;" parent="1" vertex="1">
          <mxGeometry x="320" y="1083" width="200" height="45" as="geometry" />
        </mxCell>
        <mxCell id="mCzXiH6NWdjLSZmSII8E-59" value="" style="endArrow=classic;html=1;rounded=0;exitX=0.5;exitY=1;exitDx=0;exitDy=0;entryX=0.5;entryY=0;entryDx=0;entryDy=0;labelBackgroundColor=none;fontColor=default;" parent="1" edge="1">
          <mxGeometry width="50" height="50" relative="1" as="geometry">
            <mxPoint x="419.5" y="1128" as="sourcePoint" />
            <mxPoint x="420" y="1161" as="targetPoint" />
            <Array as="points">
              <mxPoint x="419.5" y="1148" />
            </Array>
          </mxGeometry>
        </mxCell>
        <mxCell id="mCzXiH6NWdjLSZmSII8E-60" value="Értesítés" style="rounded=0;whiteSpace=wrap;html=1;labelBackgroundColor=none;" parent="1" vertex="1">
          <mxGeometry x="320" y="1163" width="200" height="45" as="geometry" />
        </mxCell>
        <mxCell id="mCzXiH6NWdjLSZmSII8E-61" value="Státusz = &#39;Könyvelőre vár&#39;" style="rounded=0;whiteSpace=wrap;html=1;labelBackgroundColor=none;" parent="1" vertex="1">
          <mxGeometry x="320" y="1243" width="200" height="45" as="geometry" />
        </mxCell>
        <mxCell id="mCzXiH6NWdjLSZmSII8E-62" value="" style="endArrow=classic;html=1;rounded=0;exitX=0.5;exitY=1;exitDx=0;exitDy=0;entryX=0.5;entryY=0;entryDx=0;entryDy=0;labelBackgroundColor=none;fontColor=default;" parent="1" edge="1">
          <mxGeometry width="50" height="50" relative="1" as="geometry">
            <mxPoint x="419.5" y="1208" as="sourcePoint" />
            <mxPoint x="420" y="1241" as="targetPoint" />
            <Array as="points" />
          </mxGeometry>
        </mxCell>
        <mxCell id="mCzXiH6NWdjLSZmSII8E-64" value="" style="edgeStyle=none;orthogonalLoop=1;jettySize=auto;html=1;rounded=0;labelBackgroundColor=none;fontColor=default;" parent="1" edge="1">
          <mxGeometry width="100" relative="1" as="geometry">
            <mxPoint x="420" y="1293" as="sourcePoint" />
            <mxPoint x="420" y="1323" as="targetPoint" />
            <Array as="points" />
          </mxGeometry>
        </mxCell>
        <mxCell id="R08khRGKAjiLaZgrX1Kq-2" value="&lt;font face=&quot;Tahoma&quot;&gt;Ingatlanüzemeltetés&lt;/font&gt;&lt;div style=&quot;font-family: Verdana; font-size: 8px;&quot;&gt;&lt;font face=&quot;BtbKhpzwE4qU60kqDjoo&quot; size=&quot;3&quot;&gt;Követelés kezelés&lt;/font&gt;&lt;/div&gt;" style="ellipse;whiteSpace=wrap;html=1;" vertex="1" parent="1">
          <mxGeometry x="465" y="49" width="190" height="80" as="geometry" />
        </mxCell>
      </root>
    </mxGraphModel>
  </diagram>
</mxfile>
